<svg viewBox="0 0 32 32" xmlns="http://www.w3.org/2000/svg">
    <path d="M16 0.000127035C11.7564 0.000127035 7.68695 1.6859 4.6863 4.68641C1.68578 7.68692 0 11.7569 0 16.0001C0 20.2432 1.68578 24.3131 4.6863 27.3137C7.68682 30.3142 11.7568 32 16 32C20.2432 32 24.313 30.3142 27.3137 27.3137C30.3142 24.3132 32 20.2432 32 16.0001C31.9953 11.758 30.3081 7.69086 27.3085 4.69149C24.3089 1.69213 20.2418 0.00476191 15.9999 0L16 0.000127035ZM16 29.1557C12.5109 29.1557 9.16442 27.7698 6.69774 25.3025C4.23049 22.8355 2.84452 19.4892 2.84452 16.0003C2.84452 12.5113 4.23043 9.1647 6.69774 6.69803C9.16473 4.23079 12.511 2.84483 16 2.84483C19.489 2.84483 22.8356 4.23073 25.3023 6.69803C27.7695 9.16502 29.1555 12.5113 29.1555 16.0003C29.1518 19.4881 27.7644 22.832 25.2981 25.2987C22.8318 27.7653 19.4878 29.1523 15.9996 29.1561L16 29.1557ZM14.2222 7.11124C14.2222 6.63976 14.4095 6.18762 14.7428 5.85429C15.0764 5.52071 15.5285 5.33345 16 5.33345C16.4715 5.33345 16.9236 5.52071 17.2572 5.85429C17.5906 6.18762 17.7778 6.63975 17.7778 7.11124C17.7778 7.58273 17.5906 8.03486 17.2572 8.36844C16.9236 8.70178 16.4715 8.88903 16 8.88903C15.5285 8.88903 15.0764 8.70178 14.7428 8.36844C14.4095 8.03486 14.2222 7.58273 14.2222 7.11124ZM19.9113 23.4668V24.8889C19.9113 25.0776 19.8364 25.2584 19.7029 25.3919C19.5695 25.5251 19.3887 25.6 19.1999 25.6H12.7999C12.4071 25.6 12.0886 25.2817 12.0886 24.8889V23.4668C12.0886 23.074 12.4071 22.7555 12.7999 22.7555H13.511C13.6995 22.7555 13.8805 22.6806 14.0137 22.5474C14.1471 22.414 14.222 22.2332 14.222 22.0444V15.2889C14.222 15.1001 14.1471 14.9193 14.0137 14.7859C13.8805 14.6527 13.6995 14.5778 13.511 14.5778H12.7999C12.4071 14.5778 12.0886 14.2594 12.0886 13.8665V12.4444C12.0886 12.0518 12.4071 11.7334 12.7999 11.7334H17.0665C17.255 11.7334 17.4361 11.8083 17.5693 11.9417C17.7027 12.0749 17.7776 12.2559 17.7776 12.4444V22.0444C17.7776 22.2332 17.8525 22.414 17.9859 22.5474C18.1191 22.6806 18.3002 22.7555 18.4887 22.7555H19.1997C19.3885 22.7555 19.5693 22.8307 19.7027 22.9638C19.8361 23.0973 19.911 23.2781 19.911 23.4668L19.9113 23.4668Z"/>
</svg>
