<svg width="22" height="22" viewBox="0 0 22 22" xmlns="http://www.w3.org/2000/svg">
    <path fill-rule="evenodd" clip-rule="evenodd"
          d="M0.25 1C0.25 0.585786 0.585786 0.25 1 0.25H16.2C16.6142 0.25 16.95 0.585786 16.95 1V5C16.95 5.01673 16.9494 5.03341 16.9483 5.05H21C21.4142 5.05 21.75 5.38579 21.75 5.8V21C21.75 21.4142 21.4142 21.75 21 21.75H5.8C5.38579 21.75 5.05 21.4142 5.05 21V16.9483C5.03341 16.9494 5.01673 16.95 5 16.95H1C0.585786 16.95 0.25 16.6142 0.25 16.2V1ZM6.55 15.7107V20.25H20.25V6.55H15.7107L6.55 15.7107ZM13.5893 6.55L6.55 13.5893V6.55H13.5893ZM15.0893 5.05H5.8C5.38579 5.05 5.05 5.38579 5.05 5.8V15.0893L4.68934 15.45H1.75V1.75H15.45V4.68934L15.0893 5.05Z"/>
</svg>
