<svg viewBox="0 0 32 32" xmlns="http://www.w3.org/2000/svg">
    <path d="M31.2503 12.5771L16.4558 0.172076C16.1825 -0.0573587 15.8183 -0.0573587 15.545 0.172076L0.749911 12.5771C-0.0444916 13.2432 -0.238837 14.5598 0.316878 15.5122L1.424 17.4096C1.69327 17.8713 2.09648 18.1796 2.55982 18.2775C2.6632 18.2995 2.76682 18.3102 2.86973 18.3102C3.22734 18.3102 3.57601 18.1795 3.87489 17.9287L5.42989 16.6241V29.0241C5.42989 30.6651 6.54405 32 7.91343 32H11.1C12.4696 32 13.5835 30.6651 13.5835 29.0241L13.5838 22.3759C13.5838 21.7841 13.9858 21.303 14.4795 21.303H17.5208C18.0144 21.303 18.4165 21.7841 18.4165 22.3759V29.0238C18.4165 30.6648 19.5306 31.9997 20.9 31.9997H24.0866C25.4562 31.9997 26.5701 30.6648 26.5701 29.0238V16.6238L28.1251 17.9284C28.5102 18.2513 28.9785 18.3755 29.4402 18.2772C29.9035 18.1792 30.3067 17.871 30.576 17.4093L31.6831 15.5119V15.5116C32.2388 14.5598 32.0444 13.2431 31.2503 12.5771ZM24.982 29.0237C24.982 29.6154 24.58 30.0965 24.0863 30.0965H20.8998C20.4061 30.0965 20.0041 29.6154 20.0041 29.0237V22.3757C20.0041 20.7347 18.8899 19.3998 17.5205 19.3998H14.4792C13.1096 19.3998 11.9957 20.7347 11.9957 22.3757V29.0237C11.9957 29.6154 11.5937 30.0965 11.1 30.0965H7.91343C7.41977 30.0965 7.01773 29.6154 7.01773 29.0237V15.2919L15.9999 7.75648L24.9822 15.2919L24.982 29.0237ZM30.3815 14.422L29.2744 16.3194C29.2408 16.3769 29.1959 16.3971 29.1637 16.4039C29.131 16.4106 29.0831 16.4101 29.0356 16.3698L16.4552 5.8155C16.182 5.58578 15.8178 5.58578 15.5445 5.8155L2.96411 16.3691C2.91618 16.4094 2.86896 16.4099 2.83606 16.4032C2.80411 16.3964 2.75923 16.3764 2.7254 16.3187L1.61827 14.4213C1.56447 14.3287 1.58326 14.2006 1.66057 14.1356L15.9997 2.11251L30.3389 14.1356C30.4162 14.2003 30.435 14.3284 30.3812 14.4213L30.3815 14.422Z"/>
</svg>
