<svg viewBox="0 0 32 33" xmlns="http://www.w3.org/2000/svg">
    <path fill-rule="evenodd" clip-rule="evenodd"
          d="M16 17.0001C12.4704 17.0001 9.6 14.1297 9.6 10.6001C9.6 7.07048 12.4704 4.20008 16 4.20008C19.5296 4.20008 22.4 7.07048 22.4 10.6001C22.4 14.1297 19.5296 17.0001 16 17.0001ZM22.0128 18.0768C23.133 17.1793 24.0371 16.0414 24.6581 14.7472C25.279 13.4529 25.6009 12.0356 25.6 10.6001C25.6012 8.97696 25.1908 7.38012 24.4072 5.95867C23.6236 4.53723 22.4924 3.3375 21.1193 2.47196C19.7462 1.60641 18.1761 1.10321 16.5557 1.00926C14.9353 0.915307 13.3175 1.23379 11.8536 1.93485C10.3897 2.6359 9.12744 3.69669 8.18481 5.01805C7.24219 6.33941 6.64995 7.87813 6.46353 9.49051C6.2771 11.1029 6.50253 12.7362 7.11875 14.2378C7.73497 15.7394 8.72189 17.0602 9.98721 18.0768C4.13281 20.2768 0 25.7121 0 33.0001H3.2C3.2 25.0001 8.9424 20.2001 16 20.2001C23.0576 20.2001 28.8 25.0001 28.8 33.0001H32C32 25.7121 27.8672 20.2768 22.0128 18.0768Z"/>
</svg>
