<svg viewBox="0 0 49 49" fill="none" xmlns="http://www.w3.org/2000/svg">
<path fill-rule="evenodd" clip-rule="evenodd" d="M24.1875 6.43857C25.2945 6.43857 26.1859 5.54696 26.1859 4.4398V2.18628C26.1859 1.07911 25.2945 0.1875 24.1875 0.1875C23.0806 0.1875 22.1891 1.07911 22.1891 2.18628V4.4398C22.1891 5.54696 23.0806 6.43857 24.1875 6.43857ZM24.1875 9.44653C15.9687 9.44653 9.27814 16.1385 9.27814 24.359C9.27814 32.5794 15.9687 39.2714 24.1875 39.2714C32.4063 39.2714 39.0969 32.5794 39.0969 24.359C39.0969 16.1287 32.4063 9.44653 24.1875 9.44653ZM24.1875 35.264C18.1728 35.264 13.2749 30.3651 13.2749 24.3492C13.2749 18.3332 18.1728 13.4343 24.1875 13.4343C30.2022 13.4343 35.1002 18.3332 35.1002 24.3492C35.1002 30.3651 30.2022 35.264 24.1875 35.264ZM22.1891 43.945C22.1891 42.8378 23.0806 41.9462 24.1875 41.9462C25.2945 41.9462 26.1859 42.8476 26.1859 43.945V46.1887C26.1859 47.2959 25.2945 48.1875 24.1875 48.1875C23.0806 48.1875 22.1891 47.2959 22.1891 46.1887V43.945ZM46.1891 22.1936H43.9361C42.8291 22.1936 41.9377 23.0852 41.9377 24.1924C41.9377 25.2995 42.8291 26.1912 43.9361 26.1912H46.1891C47.2961 26.1912 48.1875 25.2995 48.1875 24.1924C48.1875 23.0852 47.2961 22.1936 46.1891 22.1936ZM2.18587 22.1936H4.43893C5.53607 22.1936 6.4373 23.0852 6.4275 24.1924C6.4275 25.2995 5.53607 26.1912 4.42913 26.1912H2.18587C1.07893 26.1912 0.1875 25.2995 0.1875 24.1924C0.1875 23.0852 1.07893 22.1936 2.18587 22.1936ZM38.3328 7.2224L36.7361 8.80966C35.9524 9.59349 35.9524 10.8574 36.7361 11.6413C37.5197 12.4251 38.7834 12.4251 39.5671 11.6413L41.154 10.054C41.9377 9.27016 41.9377 8.00623 41.154 7.2224C40.3704 6.43856 39.1067 6.43856 38.3328 7.2224ZM7.22099 38.3308L8.80793 36.7435C9.59161 35.9695 10.8553 35.9597 11.639 36.7435C12.4226 37.5273 12.4226 38.7913 11.639 39.5751L10.052 41.1624C9.26834 41.9462 8.00467 41.9462 7.22099 41.1624C6.43732 40.3785 6.43732 39.1146 7.22099 38.3308ZM39.5671 36.7435C38.7834 35.9597 37.5197 35.9597 36.7361 36.7435C35.9524 37.5273 35.9524 38.7913 36.7361 39.5751L38.323 41.1624C39.1067 41.9462 40.3704 41.9462 41.154 41.1624C41.9377 40.3785 41.9377 39.1146 41.154 38.3308L39.5671 36.7435ZM11.639 11.6413C10.8553 12.4251 9.59161 12.4251 8.80793 11.6413L7.22099 10.054C6.43732 9.27016 6.43732 8.00623 7.22099 7.2224C8.00467 6.43856 9.26834 6.43856 10.052 7.2224L11.639 8.80966C12.4226 9.59349 12.4226 10.8574 11.639 11.6413Z" fill="white"/>
</svg>
